<?xml version="1.0" encoding="utf-8"?>
<svg width="47.996629000000006mm" height="45.915000000000006mm" viewBox="21.393285 -67.852 47.996629000000006 45.915000000000006" style="background-color:white" xmlns="http://www.w3.org/2000/svg" xmlns:xlink="http://www.w3.org/1999/xlink">
  <g transform="translate(21.3933 -21.937) scale(1 -1) translate(-21.3933 67.852)">
    <path d="M 32.639 -60.2869 L 30.099 -60.2869" fill="none" stroke="black" stroke-linecap="round" stroke-linejoin="round" stroke-width="0.15"/>
    <path d="M 33.909 -60.2869 L 33.909 -62.8269" fill="none" stroke="black" stroke-linecap="round" stroke-linejoin="round" stroke-width="0.15"/>
    <path d="M 38.481 -60.7949 L 39.497 -60.7949" fill="none" stroke="black" stroke-linecap="round" stroke-linejoin="round" stroke-width="0.15"/>
    <path d="M 40.513 -61.8109 L 40.259 -61.5569" fill="none" stroke="black" stroke-linecap="round" stroke-linejoin="round" stroke-width="0.15"/>
    <path d="M 42.799 -61.5569 L 40.259 -61.5569" fill="none" stroke="black" stroke-linecap="round" stroke-linejoin="round" stroke-width="0.15"/>
    <path d="M 36.83 -61.8109 L 36.576 -61.5569" fill="none" stroke="black" stroke-linecap="round" stroke-linejoin="round" stroke-width="0.15"/>
    <path d="M 39.243 -63.0809 L 38.989 -62.8269" fill="none" stroke="black" stroke-linecap="round" stroke-linejoin="round" stroke-width="0.15"/>
    <path d="M 36.576 -61.5569 L 36.83 -61.3029" fill="none" stroke="black" stroke-linecap="round" stroke-linejoin="round" stroke-width="0.15"/>
    <path d="M 32.639 -62.8269 L 32.639 -61.5569" fill="none" stroke="black" stroke-linecap="round" stroke-linejoin="round" stroke-width="0.15"/>
    <path d="M 31.623 -65.6209 L 31.877 -65.3669" fill="none" stroke="black" stroke-linecap="round" stroke-linejoin="round" stroke-width="0.15"/>
    <path d="M 30.099 -60.2869 L 30.099 -62.8269" fill="none" stroke="black" stroke-linecap="round" stroke-linejoin="round" stroke-width="0.15"/>
    <path d="M 31.623 -65.1129 L 31.623 -65.6209" fill="none" stroke="black" stroke-linecap="round" stroke-linejoin="round" stroke-width="0.15"/>
    <path d="M 40.259 -61.5569 L 40.513 -61.3029" fill="none" stroke="black" stroke-linecap="round" stroke-linejoin="round" stroke-width="0.15"/>
    <path d="M 36.83 -61.3029 L 36.83 -61.8109" fill="none" stroke="black" stroke-linecap="round" stroke-linejoin="round" stroke-width="0.15"/>
    <path d="M 40.1871 -61.5569 A 1.19812 1.19812 0 1 1 37.7909 -61.5569 A 1.19812 1.19812 0 1 1 40.1871 -61.5569" fill="none" stroke="black" stroke-width="0.15" stroke-linecap="round"/>
    <path d="M 39.751 -63.0809 L 40.132 -63.0809" fill="none" stroke="black" stroke-linecap="round" stroke-linejoin="round" stroke-width="0.15"/>
    <path d="M 38.989 -65.3669 L 38.989 -62.755" fill="none" stroke="black" stroke-linecap="round" stroke-linejoin="round" stroke-width="0.15"/>
    <path d="M 34.544 -65.3669 L 38.989 -65.3669" fill="none" stroke="black" stroke-linecap="round" stroke-linejoin="round" stroke-width="0.15"/>
    <path d="M 33.02 -61.3029 L 33.02 -61.8109" fill="none" stroke="black" stroke-linecap="round" stroke-linejoin="round" stroke-width="0.15"/>
    <path d="M 27.559 -61.5569 L 30.099 -61.5569" fill="none" stroke="black" stroke-linecap="round" stroke-linejoin="round" stroke-width="0.15"/>
    <path d="M 34.544 -66.6369 L 32.004 -66.6369" fill="none" stroke="black" stroke-linecap="round" stroke-linejoin="round" stroke-width="0.15"/>
    <path d="M 32.639 -61.5569 L 32.639 -60.2869" fill="none" stroke="black" stroke-linecap="round" stroke-linejoin="round" stroke-width="0.15"/>
    <path d="M 33.909 -61.5569 L 32.639 -61.5569" fill="none" stroke="black" stroke-linecap="round" stroke-linejoin="round" stroke-width="0.15"/>
    <path d="M 36.449 -62.8269 L 36.449 -61.5569" fill="none" stroke="black" stroke-linecap="round" stroke-linejoin="round" stroke-width="0.15"/>
    <path d="M 38.735 -63.0809 L 39.243 -63.0809" fill="none" stroke="black" stroke-linecap="round" stroke-linejoin="round" stroke-width="0.15"/>
    <path d="M 28.829 -61.5569 L 28.829 -65.3669" fill="none" stroke="black" stroke-linecap="round" stroke-linejoin="round" stroke-width="0.15"/>
    <path d="M 30.099 -62.8269 L 32.639 -62.8269" fill="none" stroke="black" stroke-linecap="round" stroke-linejoin="round" stroke-width="0.15"/>
    <path d="M 33.909 -62.8269 L 36.449 -62.8269" fill="none" stroke="black" stroke-linecap="round" stroke-linejoin="round" stroke-width="0.15"/>
    <path d="M 36.449 -60.2869 L 33.909 -60.2869" fill="none" stroke="black" stroke-linecap="round" stroke-linejoin="round" stroke-width="0.15"/>
    <path d="M 36.449 -61.5569 L 36.449 -60.2869" fill="none" stroke="black" stroke-linecap="round" stroke-linejoin="round" stroke-width="0.15"/>
    <path d="M 37.7909 -61.5569 L 36.449 -61.5569" fill="none" stroke="black" stroke-linecap="round" stroke-linejoin="round" stroke-width="0.15"/>
    <path d="M 34.544 -64.0969 L 34.544 -66.6369" fill="none" stroke="black" stroke-linecap="round" stroke-linejoin="round" stroke-width="0.15"/>
    <path d="M 38.989 -62.8269 L 38.735 -63.0809" fill="none" stroke="black" stroke-linecap="round" stroke-linejoin="round" stroke-width="0.15"/>
    <path d="M 32.004 -65.3669 L 32.004 -64.0969" fill="none" stroke="black" stroke-linecap="round" stroke-linejoin="round" stroke-width="0.15"/>
    <path d="M 39.497 -62.3189 L 38.481 -62.3189" fill="none" stroke="black" stroke-linecap="round" stroke-linejoin="round" stroke-width="0.15"/>
    <path d="M 38.862 -61.5569 L 39.497 -62.3189" fill="none" stroke="black" stroke-linecap="round" stroke-linejoin="round" stroke-width="0.15"/>
    <path d="M 39.497 -60.7949 L 38.862 -61.5569" fill="none" stroke="black" stroke-linecap="round" stroke-linejoin="round" stroke-width="0.15"/>
    <path d="M 40.513 -61.3029 L 40.513 -61.8109" fill="none" stroke="black" stroke-linecap="round" stroke-linejoin="round" stroke-width="0.15"/>
    <path d="M 32.004 -66.6369 L 32.004 -65.3669" fill="none" stroke="black" stroke-linecap="round" stroke-linejoin="round" stroke-width="0.15"/>
    <path d="M 28.829 -65.3669 L 32.004 -65.3669" fill="none" stroke="black" stroke-linecap="round" stroke-linejoin="round" stroke-width="0.15"/>
    <path d="M 31.877 -65.3669 L 31.623 -65.1129" fill="none" stroke="black" stroke-linecap="round" stroke-linejoin="round" stroke-width="0.15"/>
    <path d="M 32.766 -61.5569 L 33.02 -61.3029" fill="none" stroke="black" stroke-linecap="round" stroke-linejoin="round" stroke-width="0.15"/>
    <path d="M 33.02 -61.8109 L 32.766 -61.5569" fill="none" stroke="black" stroke-linecap="round" stroke-linejoin="round" stroke-width="0.15"/>
    <path d="M 32.004 -64.0969 L 34.544 -64.0969" fill="none" stroke="black" stroke-linecap="round" stroke-linejoin="round" stroke-width="0.15"/>
    <path d="M 55.3423 -65.8734 L 55.3423 -66.3377 L 55.628 -66.0877 L 55.628 -66.1949 L 55.6637 -66.2663 L 55.6994 -66.302 L 55.7709 -66.3377 L 55.9494 -66.3377 L 56.0209 -66.302 L 56.0566 -66.2663 L 56.0923 -66.1949 L 56.0923 -65.9806 L 56.0566 -65.9091 L 56.0209 -65.8734" fill="none" stroke="black" stroke-linecap="round" stroke-linejoin="round" stroke-width="0.1"/>
    <path d="M 55.3423 -66.552 L 56.0923 -66.802 L 55.3423 -67.052" fill="none" stroke="black" stroke-linecap="round" stroke-linejoin="round" stroke-width="0.1"/>
    <path d="M 55.3423 -67.2306 L 55.3423 -67.6949 L 55.628 -67.4449 L 55.628 -67.552 L 55.6637 -67.6234 L 55.6994 -67.6591 L 55.7709 -67.6949 L 55.9494 -67.6949 L 56.0209 -67.6591 L 56.0566 -67.6234 L 56.0923 -67.552 L 56.0923 -67.3377 L 56.0566 -67.2663 L 56.0209 -67.2306" fill="none" stroke="black" stroke-linecap="round" stroke-linejoin="round" stroke-width="0.1"/>
    <path d="M 57.8569 -65.8496 L 57.8569 -66.2781" fill="none" stroke="black" stroke-linecap="round" stroke-linejoin="round" stroke-width="0.1"/>
    <path d="M 58.6069 -66.0639 L 57.8569 -66.0639" fill="none" stroke="black" stroke-linecap="round" stroke-linejoin="round" stroke-width="0.1"/>
    <path d="M 57.8569 -66.4567 L 58.6069 -66.9567" fill="none" stroke="black" stroke-linecap="round" stroke-linejoin="round" stroke-width="0.1"/>
    <path d="M 57.8569 -66.9567 L 58.6069 -66.4567" fill="none" stroke="black" stroke-linecap="round" stroke-linejoin="round" stroke-width="0.1"/>
    <path d="M 59.8515 -66.296 L 59.4943 -66.046" fill="none" stroke="black" stroke-linecap="round" stroke-linejoin="round" stroke-width="0.1"/>
    <path d="M 59.8515 -65.8674 L 59.1015 -65.8674 L 59.1015 -66.1531 L 59.1372 -66.2246 L 59.1729 -66.2603 L 59.2443 -66.296 L 59.3515 -66.296 L 59.4229 -66.2603 L 59.4586 -66.2246 L 59.4943 -66.1531 L 59.4943 -65.8674" fill="none" stroke="black" stroke-linecap="round" stroke-linejoin="round" stroke-width="0.1"/>
    <path d="M 59.1015 -66.546 L 59.8515 -67.046" fill="none" stroke="black" stroke-linecap="round" stroke-linejoin="round" stroke-width="0.1"/>
    <path d="M 59.1015 -67.046 L 59.8515 -66.546" fill="none" stroke="black" stroke-linecap="round" stroke-linejoin="round" stroke-width="0.1"/>
    <path d="M 56.6226 -66.2306 L 56.5869 -66.1591 L 56.5869 -66.052 L 56.6226 -65.9449 L 56.694 -65.8734 L 56.7655 -65.8377 L 56.9083 -65.802 L 57.0155 -65.802 L 57.1583 -65.8377 L 57.2297 -65.8734 L 57.3012 -65.9449 L 57.3369 -66.052 L 57.3369 -66.1234 L 57.3012 -66.2306 L 57.2655 -66.2663 L 57.0155 -66.2663 L 57.0155 -66.1234" fill="none" stroke="black" stroke-linecap="round" stroke-linejoin="round" stroke-width="0.1"/>
    <path d="M 57.3369 -66.5877 L 56.5869 -66.5877 L 57.3369 -67.0163 L 56.5869 -67.0163" fill="none" stroke="black" stroke-linecap="round" stroke-linejoin="round" stroke-width="0.1"/>
    <path d="M 57.3369 -67.3734 L 56.5869 -67.3734 L 56.5869 -67.552 L 56.6226 -67.6591 L 56.694 -67.7306 L 56.7655 -67.7663 L 56.9083 -67.802 L 57.0155 -67.802 L 57.1583 -67.7663 L 57.2297 -67.7306 L 57.3012 -67.6591 L 57.3369 -67.552 L 57.3369 -67.3734" fill="none" stroke="black" stroke-linecap="round" stroke-linejoin="round" stroke-width="0.1"/>
    <path d="M 68.3149 -41.3357 L 69.3149 -41.2107" fill="none" stroke="black" stroke-linecap="round" stroke-linejoin="round" stroke-width="0.15"/>
    <path d="M 68.3625 -41.3297 L 68.3149 -41.4309 L 68.3149 -41.6214 L 68.3625 -41.7107 L 68.4102 -41.7523 L 68.5054 -41.788 L 68.7911 -41.7523 L 68.8863 -41.6928 L 68.934 -41.6392 L 68.9816 -41.538 L 68.9816 -41.3476 L 68.934 -41.2583" fill="none" stroke="black" stroke-linecap="round" stroke-linejoin="round" stroke-width="0.15"/>
    <path d="M 68.9816 -42.1571 L 67.9816 -42.2821" fill="none" stroke="black" stroke-linecap="round" stroke-linejoin="round" stroke-width="0.15"/>
    <path d="M 68.9816 -42.5857 L 68.4578 -42.6511 L 68.3625 -42.6154 L 68.3149 -42.5261 L 68.3149 -42.3833 L 68.3625 -42.2821 L 68.4102 -42.2285" fill="none" stroke="black" stroke-linecap="round" stroke-linejoin="round" stroke-width="0.15"/>
    <path d="M 68.9816 -43.0619 L 68.3149 -43.1452" fill="none" stroke="black" stroke-linecap="round" stroke-linejoin="round" stroke-width="0.15"/>
    <path d="M 67.9816 -43.1869 L 68.0292 -43.1333 L 68.0768 -43.1749 L 68.0292 -43.2285 L 67.9816 -43.1869 L 68.0768 -43.1749" fill="none" stroke="black" stroke-linecap="round" stroke-linejoin="round" stroke-width="0.15"/>
    <path d="M 68.9816 -43.6809 L 68.934 -43.5916 L 68.8387 -43.5559 L 67.9816 -43.663" fill="none" stroke="black" stroke-linecap="round" stroke-linejoin="round" stroke-width="0.15"/>
    <path d="M 68.934 -44.0202 L 68.9816 -44.1095 L 68.9816 -44.2999 L 68.934 -44.4011 L 68.8387 -44.4607 L 68.7911 -44.4666 L 68.6959 -44.4309 L 68.6482 -44.3416 L 68.6482 -44.1988 L 68.6006 -44.1095 L 68.5054 -44.0738 L 68.4578 -44.0797 L 68.3625 -44.1392 L 68.3149 -44.2404 L 68.3149 -44.3833 L 68.3625 -44.4726" fill="none" stroke="black" stroke-linecap="round" stroke-linejoin="round" stroke-width="0.15"/>
    <path d="M 68.9816 -45.2999 L 68.4578 -45.3654 L 68.3625 -45.3297 L 68.3149 -45.2404 L 68.3149 -45.0499 L 68.3625 -44.9488" fill="none" stroke="black" stroke-linecap="round" stroke-linejoin="round" stroke-width="0.15"/>
    <path d="M 68.934 -45.3059 L 68.9816 -45.2047 L 68.9816 -44.9666 L 68.934 -44.8773 L 68.8387 -44.8416 L 68.7435 -44.8535 L 68.6482 -44.913 L 68.6006 -45.0142 L 68.6006 -45.2523 L 68.553 -45.3535" fill="none" stroke="black" stroke-linecap="round" stroke-linejoin="round" stroke-width="0.15"/>
    <path d="M 68.9816 -45.919 L 68.934 -45.8297 L 68.8387 -45.794 L 67.9816 -45.9011" fill="none" stroke="black" stroke-linecap="round" stroke-linejoin="round" stroke-width="0.15"/>
    <path d="M 68.8863 -46.3119 L 68.934 -46.3535 L 68.9816 -46.2999 L 68.934 -46.2583 L 68.8863 -46.3119 L 68.9816 -46.2999" fill="none" stroke="black" stroke-linecap="round" stroke-linejoin="round" stroke-width="0.15"/>
    <path d="M 68.934 -47.2107 L 68.9816 -47.1095 L 68.9816 -46.919 L 68.934 -46.8297 L 68.8863 -46.788 L 68.7911 -46.7523 L 68.5054 -46.788 L 68.4102 -46.8476 L 68.3625 -46.9011 L 68.3149 -47.0023 L 68.3149 -47.1928 L 68.3625 -47.2821" fill="none" stroke="black" stroke-linecap="round" stroke-linejoin="round" stroke-width="0.15"/>
    <path d="M 68.9816 -47.7761 L 68.934 -47.6869 L 68.8863 -47.6452 L 68.7911 -47.6095 L 68.5054 -47.6452 L 68.4102 -47.7047 L 68.3625 -47.7583 L 68.3149 -47.8595 L 68.3149 -48.0023 L 68.3625 -48.0916 L 68.4102 -48.1333 L 68.5054 -48.169 L 68.7911 -48.1333 L 68.8863 -48.0738 L 68.934 -48.0202 L 68.9816 -47.919 L 68.9816 -47.7761" fill="none" stroke="black" stroke-linecap="round" stroke-linejoin="round" stroke-width="0.15"/>
    <path d="M 68.8863 -48.5499 L 68.934 -48.5916 L 68.9816 -48.538 L 68.934 -48.4964 L 68.8863 -48.5499 L 68.9816 -48.538" fill="none" stroke="black" stroke-linecap="round" stroke-linejoin="round" stroke-width="0.15"/>
    <path d="M 68.3149 -49.5261 L 68.9816 -49.4428" fill="none" stroke="black" stroke-linecap="round" stroke-linejoin="round" stroke-width="0.15"/>
    <path d="M 68.3149 -49.0976 L 68.8387 -49.0321 L 68.934 -49.0678 L 68.9816 -49.1571 L 68.9816 -49.2999 L 68.934 -49.4011 L 68.8863 -49.4547" fill="none" stroke="black" stroke-linecap="round" stroke-linejoin="round" stroke-width="0.15"/>
    <path d="M 68.9816 -49.919 L 67.9816 -50.044" fill="none" stroke="black" stroke-linecap="round" stroke-linejoin="round" stroke-width="0.15"/>
    <path d="M 68.6006 -50.0619 L 68.9816 -50.2999" fill="none" stroke="black" stroke-linecap="round" stroke-linejoin="round" stroke-width="0.15"/>
    <path d="M 68.3149 -50.3833 L 68.6959 -49.9547" fill="none" stroke="black" stroke-linecap="round" stroke-linejoin="round" stroke-width="0.15"/>
    <path d="M 35.4409 -62.0093 L 35.4409 -61.0093 L 35.06 -61.0093 L 34.9647 -61.0569 L 34.9171 -61.1045 L 34.8695 -61.1998 L 34.8695 -61.3426 L 34.9171 -61.4379 L 34.9647 -61.4855 L 35.06 -61.5331 L 35.4409 -61.5331" fill="none" stroke="black" stroke-linecap="round" stroke-linejoin="round" stroke-width="0.15"/>
    <path d="M 33.5597 -65.7717 L 33.4169 -65.8193 L 33.1788 -65.8193 L 33.0835 -65.7717 L 33.0359 -65.724 L 32.9883 -65.6288 L 32.9883 -65.5336 L 33.0359 -65.4383 L 33.0835 -65.3907 L 33.1788 -65.3431 L 33.3692 -65.2955 L 33.4645 -65.2479 L 33.5121 -65.2002 L 33.5597 -65.105 L 33.5597 -65.0098 L 33.5121 -64.9145 L 33.4645 -64.8669 L 33.3692 -64.8193 L 33.1311 -64.8193 L 32.9883 -64.8669" fill="none" stroke="black" stroke-linecap="round" stroke-linejoin="round" stroke-width="0.15"/>
    <path d="M 31.7023 -62.0093 L 31.7023 -61.0093 L 31.369 -61.7236 L 31.0357 -61.0093 L 31.0357 -62.0093" fill="none" stroke="black" stroke-linecap="round" stroke-linejoin="round" stroke-width="0.15"/>
    <path d="M 50.5551 -66.296 L 50.1979 -66.046" fill="none" stroke="black" stroke-linecap="round" stroke-linejoin="round" stroke-width="0.1"/>
    <path d="M 50.5551 -65.8674 L 49.8051 -65.8674 L 49.8051 -66.1531 L 49.8408 -66.2246 L 49.8765 -66.2603 L 49.9479 -66.296 L 50.0551 -66.296 L 50.1265 -66.2603 L 50.1622 -66.2246 L 50.1979 -66.1531 L 50.1979 -65.8674" fill="none" stroke="black" stroke-linecap="round" stroke-linejoin="round" stroke-width="0.1"/>
    <path d="M 49.8051 -66.546 L 50.5551 -67.046" fill="none" stroke="black" stroke-linecap="round" stroke-linejoin="round" stroke-width="0.1"/>
    <path d="M 49.8051 -67.046 L 50.5551 -66.546" fill="none" stroke="black" stroke-linecap="round" stroke-linejoin="round" stroke-width="0.1"/>
    <path d="M 47.3516 -66.2306 L 47.3159 -66.1591 L 47.3159 -66.052 L 47.3516 -65.9449 L 47.423 -65.8734 L 47.4945 -65.8377 L 47.6373 -65.802 L 47.7445 -65.802 L 47.8873 -65.8377 L 47.9587 -65.8734 L 48.0302 -65.9449 L 48.0659 -66.052 L 48.0659 -66.1234 L 48.0302 -66.2306 L 47.9945 -66.2663 L 47.7445 -66.2663 L 47.7445 -66.1234" fill="none" stroke="black" stroke-linecap="round" stroke-linejoin="round" stroke-width="0.1"/>
    <path d="M 48.0659 -66.5877 L 47.3159 -66.5877 L 48.0659 -67.0163 L 47.3159 -67.0163" fill="none" stroke="black" stroke-linecap="round" stroke-linejoin="round" stroke-width="0.1"/>
    <path d="M 48.0659 -67.3734 L 47.3159 -67.3734 L 47.3159 -67.552 L 47.3516 -67.6591 L 47.423 -67.7306 L 47.4945 -67.7663 L 47.6373 -67.802 L 47.7445 -67.802 L 47.8873 -67.7663 L 47.9587 -67.7306 L 48.0302 -67.6591 L 48.0659 -67.552 L 48.0659 -67.3734" fill="none" stroke="black" stroke-linecap="round" stroke-linejoin="round" stroke-width="0.1"/>
    <path d="M 46.0713 -65.8734 L 46.0713 -66.3377 L 46.357 -66.0877 L 46.357 -66.1949 L 46.3927 -66.2663 L 46.4284 -66.302 L 46.4999 -66.3377 L 46.6784 -66.3377 L 46.7499 -66.302 L 46.7856 -66.2663 L 46.8213 -66.1949 L 46.8213 -65.9806 L 46.7856 -65.9091 L 46.7499 -65.8734" fill="none" stroke="black" stroke-linecap="round" stroke-linejoin="round" stroke-width="0.1"/>
    <path d="M 46.0713 -66.552 L 46.8213 -66.802 L 46.0713 -67.052" fill="none" stroke="black" stroke-linecap="round" stroke-linejoin="round" stroke-width="0.1"/>
    <path d="M 46.0713 -67.2306 L 46.0713 -67.6949 L 46.357 -67.4449 L 46.357 -67.552 L 46.3927 -67.6234 L 46.4284 -67.6591 L 46.4999 -67.6949 L 46.6784 -67.6949 L 46.7499 -67.6591 L 46.7856 -67.6234 L 46.8213 -67.552 L 46.8213 -67.3377 L 46.7856 -67.2663 L 46.7499 -67.2306" fill="none" stroke="black" stroke-linecap="round" stroke-linejoin="round" stroke-width="0.1"/>
    <path d="M 48.5605 -65.8496 L 48.5605 -66.2781" fill="none" stroke="black" stroke-linecap="round" stroke-linejoin="round" stroke-width="0.1"/>
    <path d="M 49.3105 -66.0639 L 48.5605 -66.0639" fill="none" stroke="black" stroke-linecap="round" stroke-linejoin="round" stroke-width="0.1"/>
    <path d="M 48.5605 -66.4567 L 49.3105 -66.9567" fill="none" stroke="black" stroke-linecap="round" stroke-linejoin="round" stroke-width="0.1"/>
    <path d="M 48.5605 -66.9567 L 49.3105 -66.4567" fill="none" stroke="black" stroke-linecap="round" stroke-linejoin="round" stroke-width="0.1"/>
    <path d="M 67.7306 -58.2633 L 67.2663 -58.2633 L 67.5163 -58.549 L 67.4091 -58.549 L 67.3377 -58.5847 L 67.302 -58.6204 L 67.2663 -58.6919 L 67.2663 -58.8704 L 67.302 -58.9419 L 67.3377 -58.9776 L 67.4091 -59.0133 L 67.6234 -59.0133 L 67.6949 -58.9776 L 67.7306 -58.9419" fill="none" stroke="black" stroke-linecap="round" stroke-linejoin="round" stroke-width="0.1"/>
    <path d="M 67.052 -58.2633 L 66.802 -59.0133 L 66.552 -58.2633" fill="none" stroke="black" stroke-linecap="round" stroke-linejoin="round" stroke-width="0.1"/>
    <path d="M 66.3734 -58.2633 L 65.9091 -58.2633 L 66.1591 -58.549 L 66.052 -58.549 L 65.9806 -58.5847 L 65.9449 -58.6204 L 65.9091 -58.6919 L 65.9091 -58.8704 L 65.9449 -58.9419 L 65.9806 -58.9776 L 66.052 -59.0133 L 66.2663 -59.0133 L 66.3377 -58.9776 L 66.3734 -58.9419" fill="none" stroke="black" stroke-linecap="round" stroke-linejoin="round" stroke-width="0.1"/>
    <path d="M 67.4242 -57.029 L 67.4957 -56.9933 L 67.6028 -56.9933 L 67.7099 -57.029 L 67.7814 -57.1004 L 67.8171 -57.1719 L 67.8528 -57.3147 L 67.8528 -57.4219 L 67.8171 -57.5647 L 67.7814 -57.6361 L 67.7099 -57.7076 L 67.6028 -57.7433 L 67.5314 -57.7433 L 67.4242 -57.7076 L 67.3885 -57.6719 L 67.3885 -57.4219 L 67.5314 -57.4219" fill="none" stroke="black" stroke-linecap="round" stroke-linejoin="round" stroke-width="0.1"/>
    <path d="M 67.0671 -57.7433 L 67.0671 -56.9933 L 66.6385 -57.7433 L 66.6385 -56.9933" fill="none" stroke="black" stroke-linecap="round" stroke-linejoin="round" stroke-width="0.1"/>
    <path d="M 66.2814 -57.7433 L 66.2814 -56.9933 L 66.1028 -56.9933 L 65.9957 -57.029 L 65.9242 -57.1004 L 65.8885 -57.1719 L 65.8528 -57.3147 L 65.8528 -57.4219 L 65.8885 -57.5647 L 65.9242 -57.6361 L 65.9957 -57.7076 L 66.1028 -57.7433 L 66.2814 -57.7433" fill="none" stroke="black" stroke-linecap="round" stroke-linejoin="round" stroke-width="0.1"/>
    <path d="M 67.7711 -56.4376 L 67.6639 -56.4733 L 67.4853 -56.4733 L 67.4139 -56.4376 L 67.3782 -56.4019 L 67.3425 -56.3304 L 67.3425 -56.259 L 67.3782 -56.1876 L 67.4139 -56.1519 L 67.4853 -56.1161 L 67.6282 -56.0804 L 67.6996 -56.0447 L 67.7353 -56.009 L 67.7711 -55.9376 L 67.7711 -55.8661 L 67.7353 -55.7947 L 67.6996 -55.759 L 67.6282 -55.7233 L 67.4496 -55.7233 L 67.3425 -55.759" fill="none" stroke="black" stroke-linecap="round" stroke-linejoin="round" stroke-width="0.1"/>
    <path d="M 66.5925 -56.4019 L 66.6282 -56.4376 L 66.7353 -56.4733 L 66.8068 -56.4733 L 66.9139 -56.4376 L 66.9853 -56.3661 L 67.0211 -56.2947 L 67.0568 -56.1519 L 67.0568 -56.0447 L 67.0211 -55.9019 L 66.9853 -55.8304 L 66.9139 -55.759 L 66.8068 -55.7233 L 66.7353 -55.7233 L 66.6282 -55.759 L 66.5925 -55.7947" fill="none" stroke="black" stroke-linecap="round" stroke-linejoin="round" stroke-width="0.1"/>
    <path d="M 65.9139 -56.4733 L 66.2711 -56.4733 L 66.2711 -55.7233" fill="none" stroke="black" stroke-linecap="round" stroke-linejoin="round" stroke-width="0.1"/>
    <path d="M 67.8143 -55.2946 L 67.7072 -55.3303 L 67.5286 -55.3303 L 67.4572 -55.2946 L 67.4215 -55.2589 L 67.3857 -55.1874 L 67.3857 -55.116 L 67.4215 -55.0446 L 67.4572 -55.0089 L 67.5286 -54.9731 L 67.6715 -54.9374 L 67.7429 -54.9017 L 67.7786 -54.866 L 67.8143 -54.7946 L 67.8143 -54.7231 L 67.7786 -54.6517 L 67.7429 -54.616 L 67.6715 -54.5803 L 67.4929 -54.5803 L 67.3857 -54.616" fill="none" stroke="black" stroke-linecap="round" stroke-linejoin="round" stroke-width="0.1"/>
    <path d="M 67.0643 -55.3303 L 67.0643 -54.5803 L 66.8857 -54.5803 L 66.7786 -54.616 L 66.7072 -54.6874 L 66.6715 -54.7589 L 66.6357 -54.9017 L 66.6357 -55.0089 L 66.6715 -55.1517 L 66.7072 -55.2231 L 66.7786 -55.2946 L 66.8857 -55.3303 L 67.0643 -55.3303" fill="none" stroke="black" stroke-linecap="round" stroke-linejoin="round" stroke-width="0.1"/>
    <path d="M 66.35 -55.116 L 65.9929 -55.116" fill="none" stroke="black" stroke-linecap="round" stroke-linejoin="round" stroke-width="0.1"/>
    <path d="M 66.4215 -55.3303 L 66.1715 -54.5803 L 65.9215 -55.3303" fill="none" stroke="black" stroke-linecap="round" stroke-linejoin="round" stroke-width="0.1"/>
    <path d="M 23.479 -55.5843 L 23.479 -54.8343 L 23.1933 -54.8343 L 23.1219 -54.87 L 23.0861 -54.9057 L 23.0504 -54.9771 L 23.0504 -55.0843 L 23.0861 -55.1557 L 23.1219 -55.1914 L 23.1933 -55.2271 L 23.479 -55.2271" fill="none" stroke="black" stroke-linecap="round" stroke-linejoin="round" stroke-width="0.1"/>
    <path d="M 22.8004 -54.8343 L 22.6219 -55.5843 L 22.479 -55.0486 L 22.3361 -55.5843 L 22.1576 -54.8343" fill="none" stroke="black" stroke-linecap="round" stroke-linejoin="round" stroke-width="0.1"/>
    <path d="M 21.4433 -55.5843 L 21.6933 -55.2271" fill="none" stroke="black" stroke-linecap="round" stroke-linejoin="round" stroke-width="0.1"/>
    <path d="M 21.8719 -55.5843 L 21.8719 -54.8343 L 21.5861 -54.8343 L 21.5147 -54.87 L 21.479 -54.9057 L 21.4433 -54.9771 L 21.4433 -55.0843 L 21.479 -55.1557 L 21.5147 -55.1914 L 21.5861 -55.2271 L 21.8719 -55.2271" fill="none" stroke="black" stroke-linecap="round" stroke-linejoin="round" stroke-width="0.1"/>
    <path d="M 23.0504 -58.299 L 23.1219 -58.2633 L 23.229 -58.2633 L 23.3361 -58.299 L 23.4076 -58.3704 L 23.4433 -58.4419 L 23.479 -58.5847 L 23.479 -58.6919 L 23.4433 -58.8347 L 23.4076 -58.9061 L 23.3361 -58.9776 L 23.229 -59.0133 L 23.1576 -59.0133 L 23.0504 -58.9776 L 23.0147 -58.9419 L 23.0147 -58.6919 L 23.1576 -58.6919" fill="none" stroke="black" stroke-linecap="round" stroke-linejoin="round" stroke-width="0.1"/>
    <path d="M 22.6933 -59.0133 L 22.6933 -58.2633 L 22.2647 -59.0133 L 22.2647 -58.2633" fill="none" stroke="black" stroke-linecap="round" stroke-linejoin="round" stroke-width="0.1"/>
    <path d="M 21.9076 -59.0133 L 21.9076 -58.2633 L 21.729 -58.2633 L 21.6219 -58.299 L 21.5504 -58.3704 L 21.5147 -58.4419 L 21.479 -58.5847 L 21.479 -58.6919 L 21.5147 -58.8347 L 21.5504 -58.9061 L 21.6219 -58.9776 L 21.729 -59.0133 L 21.9076 -59.0133" fill="none" stroke="black" stroke-linecap="round" stroke-linejoin="round" stroke-width="0.1"/>
    <path d="M 31.9623 -21.987 L 31.2123 -21.987 L 31.2123 -22.2727 L 31.248 -22.3441 L 31.2837 -22.3799 L 31.3551 -22.4156 L 31.4623 -22.4156 L 31.5337 -22.3799 L 31.5694 -22.3441 L 31.6051 -22.2727 L 31.6051 -21.987" fill="none" stroke="black" stroke-linecap="round" stroke-linejoin="round" stroke-width="0.1"/>
    <path d="M 31.2123 -22.6656 L 31.9623 -22.8441 L 31.4266 -22.987 L 31.9623 -23.1299 L 31.2123 -23.3084" fill="none" stroke="black" stroke-linecap="round" stroke-linejoin="round" stroke-width="0.1"/>
    <path d="M 31.9623 -24.0227 L 31.6051 -23.7727" fill="none" stroke="black" stroke-linecap="round" stroke-linejoin="round" stroke-width="0.1"/>
    <path d="M 31.9623 -23.5941 L 31.2123 -23.5941 L 31.2123 -23.8799 L 31.248 -23.9513 L 31.2837 -23.987 L 31.3551 -24.0227 L 31.4623 -24.0227 L 31.5337 -23.987 L 31.5694 -23.9513 L 31.6051 -23.8799 L 31.6051 -23.5941" fill="none" stroke="black" stroke-linecap="round" stroke-linejoin="round" stroke-width="0.1"/>
    <path d="M 29.978 -22.4156 L 29.9423 -22.3441 L 29.9423 -22.237 L 29.978 -22.1299 L 30.0494 -22.0584 L 30.1209 -22.0227 L 30.2637 -21.987 L 30.3709 -21.987 L 30.5137 -22.0227 L 30.5851 -22.0584 L 30.6566 -22.1299 L 30.6923 -22.237 L 30.6923 -22.3084 L 30.6566 -22.4156 L 30.6209 -22.4513 L 30.3709 -22.4513 L 30.3709 -22.3084" fill="none" stroke="black" stroke-linecap="round" stroke-linejoin="round" stroke-width="0.1"/>
    <path d="M 30.6923 -22.7727 L 29.9423 -22.7727 L 30.6923 -23.2013 L 29.9423 -23.2013" fill="none" stroke="black" stroke-linecap="round" stroke-linejoin="round" stroke-width="0.1"/>
    <path d="M 30.6923 -23.5584 L 29.9423 -23.5584 L 29.9423 -23.737 L 29.978 -23.8441 L 30.0494 -23.9156 L 30.1209 -23.9513 L 30.2637 -23.987 L 30.3709 -23.987 L 30.5137 -23.9513 L 30.5851 -23.9156 L 30.6566 -23.8441 L 30.6923 -23.737 L 30.6923 -23.5584" fill="none" stroke="black" stroke-linecap="round" stroke-linejoin="round" stroke-width="0.1"/>
    <path d="M 57.791 -22.4156 L 57.7553 -22.3441 L 57.7553 -22.237 L 57.791 -22.1299 L 57.8624 -22.0584 L 57.9339 -22.0227 L 58.0767 -21.987 L 58.1839 -21.987 L 58.3267 -22.0227 L 58.3981 -22.0584 L 58.4696 -22.1299 L 58.5053 -22.237 L 58.5053 -22.3084 L 58.4696 -22.4156 L 58.4339 -22.4513 L 58.1839 -22.4513 L 58.1839 -22.3084" fill="none" stroke="black" stroke-linecap="round" stroke-linejoin="round" stroke-width="0.1"/>
    <path d="M 58.5053 -22.7727 L 57.7553 -22.7727 L 58.5053 -23.2013 L 57.7553 -23.2013" fill="none" stroke="black" stroke-linecap="round" stroke-linejoin="round" stroke-width="0.1"/>
    <path d="M 58.5053 -23.5584 L 57.7553 -23.5584 L 57.7553 -23.737 L 57.791 -23.8441 L 57.8624 -23.9156 L 57.9339 -23.9513 L 58.0767 -23.987 L 58.1839 -23.987 L 58.3267 -23.9513 L 58.3981 -23.9156 L 58.4696 -23.8441 L 58.5053 -23.737 L 58.5053 -23.5584" fill="none" stroke="black" stroke-linecap="round" stroke-linejoin="round" stroke-width="0.1"/>
    <path d="M 59.0253 -22.0584 L 59.0253 -22.5227 L 59.311 -22.2727 L 59.311 -22.3799 L 59.3467 -22.4513 L 59.3824 -22.487 L 59.4539 -22.5227 L 59.6324 -22.5227 L 59.7039 -22.487 L 59.7396 -22.4513 L 59.7753 -22.3799 L 59.7753 -22.1656 L 59.7396 -22.0941 L 59.7039 -22.0584" fill="none" stroke="black" stroke-linecap="round" stroke-linejoin="round" stroke-width="0.1"/>
    <path d="M 59.0253 -22.737 L 59.7753 -22.987 L 59.0253 -23.237" fill="none" stroke="black" stroke-linecap="round" stroke-linejoin="round" stroke-width="0.1"/>
    <path d="M 59.0253 -23.4156 L 59.0253 -23.8799 L 59.311 -23.6299 L 59.311 -23.737 L 59.3467 -23.8084 L 59.3824 -23.8441 L 59.4539 -23.8799 L 59.6324 -23.8799 L 59.7039 -23.8441 L 59.7396 -23.8084 L 59.7753 -23.737 L 59.7753 -23.5227 L 59.7396 -23.4513 L 59.7039 -23.4156" fill="none" stroke="black" stroke-linecap="round" stroke-linejoin="round" stroke-width="0.1"/>
    <path d="M 56.5361 -22.8474 L 56.5361 -23.2759" fill="none" stroke="black" stroke-linecap="round" stroke-linejoin="round" stroke-width="0.1"/>
    <path d="M 57.2861 -23.0617 L 56.5361 -23.0617" fill="none" stroke="black" stroke-linecap="round" stroke-linejoin="round" stroke-width="0.1"/>
    <path d="M 56.5361 -23.4545 L 57.2861 -23.9545" fill="none" stroke="black" stroke-linecap="round" stroke-linejoin="round" stroke-width="0.1"/>
    <path d="M 56.5361 -23.9545 L 57.2861 -23.4545" fill="none" stroke="black" stroke-linecap="round" stroke-linejoin="round" stroke-width="0.1"/>
    <path d="M 56.0161 -23.2049 L 55.6589 -22.9549" fill="none" stroke="black" stroke-linecap="round" stroke-linejoin="round" stroke-width="0.1"/>
    <path d="M 56.0161 -22.7763 L 55.2661 -22.7763 L 55.2661 -23.062 L 55.3018 -23.1335 L 55.3375 -23.1692 L 55.4089 -23.2049 L 55.5161 -23.2049 L 55.5875 -23.1692 L 55.6232 -23.1335 L 55.6589 -23.062 L 55.6589 -22.7763" fill="none" stroke="black" stroke-linecap="round" stroke-linejoin="round" stroke-width="0.1"/>
    <path d="M 55.2661 -23.4549 L 56.0161 -23.9549" fill="none" stroke="black" stroke-linecap="round" stroke-linejoin="round" stroke-width="0.1"/>
    <path d="M 55.2661 -23.9549 L 56.0161 -23.4549" fill="none" stroke="black" stroke-linecap="round" stroke-linejoin="round" stroke-width="0.1"/>
    <path d="M 50.5599 -22.4691 L 50.5956 -22.4334 L 50.6313 -22.3263 L 50.6313 -22.2549 L 50.5956 -22.1477 L 50.5241 -22.0763 L 50.4527 -22.0406 L 50.3099 -22.0049 L 50.2027 -22.0049 L 50.0599 -22.0406 L 49.9884 -22.0763 L 49.917 -22.1477 L 49.8813 -22.2549 L 49.8813 -22.3263 L 49.917 -22.4334 L 49.9527 -22.4691" fill="none" stroke="black" stroke-linecap="round" stroke-linejoin="round" stroke-width="0.1"/>
    <path d="M 50.6313 -22.7906 L 49.8813 -22.7906" fill="none" stroke="black" stroke-linecap="round" stroke-linejoin="round" stroke-width="0.1"/>
    <path d="M 50.2384 -22.7906 L 50.2384 -23.2191" fill="none" stroke="black" stroke-linecap="round" stroke-linejoin="round" stroke-width="0.1"/>
    <path d="M 50.6313 -23.2191 L 49.8813 -23.2191" fill="none" stroke="black" stroke-linecap="round" stroke-linejoin="round" stroke-width="0.1"/>
    <path d="M 50.6313 -23.9691 L 50.6313 -23.5406" fill="none" stroke="black" stroke-linecap="round" stroke-linejoin="round" stroke-width="0.1"/>
    <path d="M 50.6313 -23.7549 L 49.8813 -23.7549 L 49.9884 -23.6834 L 50.0599 -23.612 L 50.0956 -23.5406" fill="none" stroke="black" stroke-linecap="round" stroke-linejoin="round" stroke-width="0.1"/>
    <path d="M 49.2899 -22.4691 L 49.3256 -22.4334 L 49.3613 -22.3263 L 49.3613 -22.2549 L 49.3256 -22.1477 L 49.2541 -22.0763 L 49.1827 -22.0406 L 49.0399 -22.0049 L 48.9327 -22.0049 L 48.7899 -22.0406 L 48.7184 -22.0763 L 48.647 -22.1477 L 48.6113 -22.2549 L 48.6113 -22.3263 L 48.647 -22.4334 L 48.6827 -22.4691" fill="none" stroke="black" stroke-linecap="round" stroke-linejoin="round" stroke-width="0.1"/>
    <path d="M 49.3613 -22.7906 L 48.6113 -22.7906" fill="none" stroke="black" stroke-linecap="round" stroke-linejoin="round" stroke-width="0.1"/>
    <path d="M 48.9684 -22.7906 L 48.9684 -23.2191" fill="none" stroke="black" stroke-linecap="round" stroke-linejoin="round" stroke-width="0.1"/>
    <path d="M 49.3613 -23.2191 L 48.6113 -23.2191" fill="none" stroke="black" stroke-linecap="round" stroke-linejoin="round" stroke-width="0.1"/>
    <path d="M 48.6827 -23.5406 L 48.647 -23.5763 L 48.6113 -23.6477 L 48.6113 -23.8263 L 48.647 -23.8977 L 48.6827 -23.9334 L 48.7541 -23.9691 L 48.8256 -23.9691 L 48.9327 -23.9334 L 49.3613 -23.5049 L 49.3613 -23.9691" fill="none" stroke="black" stroke-linecap="round" stroke-linejoin="round" stroke-width="0.1"/>
    <path d="M 48.0453 -22.4691 L 48.081 -22.4334 L 48.1167 -22.3263 L 48.1167 -22.2549 L 48.081 -22.1477 L 48.0095 -22.0763 L 47.9381 -22.0406 L 47.7953 -22.0049 L 47.6881 -22.0049 L 47.5453 -22.0406 L 47.4738 -22.0763 L 47.4024 -22.1477 L 47.3667 -22.2549 L 47.3667 -22.3263 L 47.4024 -22.4334 L 47.4381 -22.4691" fill="none" stroke="black" stroke-linecap="round" stroke-linejoin="round" stroke-width="0.1"/>
    <path d="M 48.1167 -22.7906 L 47.3667 -22.7906" fill="none" stroke="black" stroke-linecap="round" stroke-linejoin="round" stroke-width="0.1"/>
    <path d="M 47.7238 -22.7906 L 47.7238 -23.2191" fill="none" stroke="black" stroke-linecap="round" stroke-linejoin="round" stroke-width="0.1"/>
    <path d="M 48.1167 -23.2191 L 47.3667 -23.2191" fill="none" stroke="black" stroke-linecap="round" stroke-linejoin="round" stroke-width="0.1"/>
    <path d="M 47.3667 -23.5049 L 47.3667 -23.9691 L 47.6524 -23.7191 L 47.6524 -23.8263 L 47.6881 -23.8977 L 47.7238 -23.9334 L 47.7953 -23.9691 L 47.9738 -23.9691 L 48.0453 -23.9334 L 48.081 -23.8977 L 48.1167 -23.8263 L 48.1167 -23.612 L 48.081 -23.5406 L 48.0453 -23.5049" fill="none" stroke="black" stroke-linecap="round" stroke-linejoin="round" stroke-width="0.1"/>
    <path d="M 46.8007 -22.4691 L 46.8364 -22.4334 L 46.8721 -22.3263 L 46.8721 -22.2549 L 46.8364 -22.1477 L 46.7649 -22.0763 L 46.6935 -22.0406 L 46.5507 -22.0049 L 46.4435 -22.0049 L 46.3007 -22.0406 L 46.2292 -22.0763 L 46.1578 -22.1477 L 46.1221 -22.2549 L 46.1221 -22.3263 L 46.1578 -22.4334 L 46.1935 -22.4691" fill="none" stroke="black" stroke-linecap="round" stroke-linejoin="round" stroke-width="0.1"/>
    <path d="M 46.8721 -22.7906 L 46.1221 -22.7906" fill="none" stroke="black" stroke-linecap="round" stroke-linejoin="round" stroke-width="0.1"/>
    <path d="M 46.4792 -22.7906 L 46.4792 -23.2191" fill="none" stroke="black" stroke-linecap="round" stroke-linejoin="round" stroke-width="0.1"/>
    <path d="M 46.8721 -23.2191 L 46.1221 -23.2191" fill="none" stroke="black" stroke-linecap="round" stroke-linejoin="round" stroke-width="0.1"/>
    <path d="M 46.3721 -23.8977 L 46.8721 -23.8977" fill="none" stroke="black" stroke-linecap="round" stroke-linejoin="round" stroke-width="0.1"/>
    <path d="M 46.0864 -23.7191 L 46.6221 -23.5406 L 46.6221 -24.0049" fill="none" stroke="black" stroke-linecap="round" stroke-linejoin="round" stroke-width="0.1"/>
    <path d="M 67.0765 -28.5726 L 67.3622 -28.5726" fill="none" stroke="black" stroke-linecap="round" stroke-linejoin="round" stroke-width="0.1"/>
    <path d="M 67.2194 -28.5726 L 67.2194 -28.0726 L 67.267 -28.144 L 67.3146 -28.1916 L 67.3622 -28.2154" fill="none" stroke="black" stroke-linecap="round" stroke-linejoin="round" stroke-width="0.1"/>
    <path d="M 66.8861 -28.1202 L 66.8622 -28.0964 L 66.8146 -28.0726 L 66.6956 -28.0726 L 66.648 -28.0964 L 66.6242 -28.1202 L 66.6003 -28.1678 L 66.6003 -28.2154 L 66.6242 -28.2869 L 66.9099 -28.5726 L 66.6003 -28.5726" fill="none" stroke="black" stroke-linecap="round" stroke-linejoin="round" stroke-width="0.1"/>
    <path d="M 66.0289 -28.0488 L 66.4575 -28.6916" fill="none" stroke="black" stroke-linecap="round" stroke-linejoin="round" stroke-width="0.1"/>
    <path d="M 65.6003 -28.5726 L 65.8861 -28.5726" fill="none" stroke="black" stroke-linecap="round" stroke-linejoin="round" stroke-width="0.1"/>
    <path d="M 65.7432 -28.5726 L 65.7432 -28.0726 L 65.7908 -28.144 L 65.8384 -28.1916 L 65.8861 -28.2154" fill="none" stroke="black" stroke-linecap="round" stroke-linejoin="round" stroke-width="0.1"/>
    <path d="M 65.3622 -28.5726 L 65.267 -28.5726 L 65.2194 -28.5488 L 65.1956 -28.525 L 65.148 -28.4535 L 65.1242 -28.3583 L 65.1242 -28.1678 L 65.148 -28.1202 L 65.1718 -28.0964 L 65.2194 -28.0726 L 65.3146 -28.0726 L 65.3622 -28.0964 L 65.3861 -28.1202 L 65.4099 -28.1678 L 65.4099 -28.2869 L 65.3861 -28.3345 L 65.3622 -28.3583 L 65.3146 -28.3821 L 65.2194 -28.3821 L 65.1718 -28.3583 L 65.148 -28.3345 L 65.1242 -28.2869" fill="none" stroke="black" stroke-linecap="round" stroke-linejoin="round" stroke-width="0.1"/>
    <path d="M 25.0111 -50.673 L 25.0111 -49.911" fill="none" stroke="black" stroke-linecap="round" stroke-linejoin="round" stroke-width="0.15"/>
    <path d="M 24.6301 -50.292 L 25.392 -50.292" fill="none" stroke="black" stroke-linecap="round" stroke-linejoin="round" stroke-width="0.15"/>
    <path d="M 22.9235 -50.3634 L 22.1615 -50.3634" fill="none" stroke="black" stroke-linecap="round" stroke-linejoin="round" stroke-width="0.15"/>
    <path d="M 27.8193 -50.6968 L 27.6765 -50.7444 L 27.4384 -50.7444 L 27.3431 -50.6968 L 27.2955 -50.6491 L 27.2479 -50.5539 L 27.2479 -50.4587 L 27.2955 -50.3634 L 27.3431 -50.3158 L 27.4384 -50.2682 L 27.6288 -50.2206 L 27.7241 -50.173 L 27.7717 -50.1253 L 27.8193 -50.0301 L 27.8193 -49.9349 L 27.7717 -49.8396 L 27.7241 -49.792 L 27.6288 -49.7444 L 27.3907 -49.7444 L 27.2479 -49.792" fill="none" stroke="black" stroke-linecap="round" stroke-linejoin="round" stroke-width="0.15"/>
  </g>
</svg>