<?xml version="1.0" encoding="utf-8"?>
<svg width="50.099999999999994mm" height="50.099999999999994mm" viewBox="19.95 -70.05 50.099999999999994 50.099999999999994" style="background-color:white" xmlns="http://www.w3.org/2000/svg" xmlns:xlink="http://www.w3.org/1999/xlink">
  <g transform="translate(19.95 -19.95) scale(1 -1) translate(-19.95 70.05)">
    <path d="M 66.0 -70.0 A 4.0 4.0 0 0 1 70.0 -66.0" fill="none" stroke="black" stroke-width="0.1" stroke-linecap="round"/>
    <path d="M 20.0 -66.0 A 4.0 4.0 0 0 1 24.0 -70.0" fill="none" stroke="black" stroke-width="0.1" stroke-linecap="round"/>
    <path d="M 24.0 -20.0 L 66.0 -20.0" fill="none" stroke="black" stroke-linecap="round" stroke-linejoin="round" stroke-width="0.1"/>
    <path d="M 70.0 -24.0 A 4.0 4.0 0 0 1 66.0 -20.0" fill="none" stroke="black" stroke-width="0.1" stroke-linecap="round"/>
    <path d="M 24.0 -20.0 A 4.0 4.0 0 0 1 20.0 -24.0" fill="none" stroke="black" stroke-width="0.1" stroke-linecap="round"/>
    <path d="M 70.0 -24.0 L 70.0 -66.0" fill="none" stroke="black" stroke-linecap="round" stroke-linejoin="round" stroke-width="0.1"/>
    <path d="M 20.0 -66.0 L 20.0 -24.0" fill="none" stroke="black" stroke-linecap="round" stroke-linejoin="round" stroke-width="0.1"/>
    <path d="M 66.0 -70.0 L 24.0 -70.0" fill="none" stroke="black" stroke-linecap="round" stroke-linejoin="round" stroke-width="0.1"/>
  </g>
</svg>