<?xml version="1.0" encoding="utf-8"?>
<svg width="48.400000000000006mm" height="48.400000000000006mm" viewBox="20.8 -69.2 48.400000000000006 48.400000000000006" style="background-color:white" xmlns="http://www.w3.org/2000/svg" xmlns:xlink="http://www.w3.org/1999/xlink">
  <g transform="translate(20.8 -20.8) scale(1 -1) translate(-20.8 69.2)">
    <rect x="46.082" y="-65.42" width="0.8" height="1.3" fill="black"/>
    <path d="M 47.732 -65.02 L 47.732 -64.52" fill="none" stroke="black" stroke-linecap="round" stroke-linejoin="round" stroke-width="0.8"/>
    <path d="M 48.982 -65.02 L 48.982 -64.52" fill="none" stroke="black" stroke-linecap="round" stroke-linejoin="round" stroke-width="0.8"/>
    <path d="M 50.232 -65.02 L 50.232 -64.52" fill="none" stroke="black" stroke-linecap="round" stroke-linejoin="round" stroke-width="0.8"/>
    <rect x="55.353" y="-65.42" width="0.8" height="1.3" fill="black"/>
    <path d="M 57.003 -65.02 L 57.003 -64.52" fill="none" stroke="black" stroke-linecap="round" stroke-linejoin="round" stroke-width="0.8"/>
    <path d="M 58.253 -65.02 L 58.253 -64.52" fill="none" stroke="black" stroke-linecap="round" stroke-linejoin="round" stroke-width="0.8"/>
    <path d="M 59.503 -65.02 L 59.503 -64.52" fill="none" stroke="black" stroke-linecap="round" stroke-linejoin="round" stroke-width="0.8"/>
    <rect x="64.12" y="-59.074" width="1.3" height="0.8" fill="black"/>
    <path d="M 64.52 -57.424 L 65.02 -57.424" fill="none" stroke="black" stroke-linecap="round" stroke-linejoin="round" stroke-width="0.8"/>
    <path d="M 64.52 -56.174 L 65.02 -56.174" fill="none" stroke="black" stroke-linecap="round" stroke-linejoin="round" stroke-width="0.8"/>
    <path d="M 64.52 -54.924 L 65.02 -54.924" fill="none" stroke="black" stroke-linecap="round" stroke-linejoin="round" stroke-width="0.8"/>
    <rect x="30.869" y="-54.7925" width="1.0" height="1.0" fill="black"/>
    <path d="M 31.369 -53.0225 L 31.369 -53.0225" fill="none" stroke="black" stroke-linecap="round" stroke-linejoin="round" stroke-width="1.0"/>
    <rect x="24.15" y="-48.85" width="1.7" height="1.7" fill="black"/>
    <path d="M 22.46 -48.0 L 22.46 -48.0" fill="none" stroke="black" stroke-linecap="round" stroke-linejoin="round" stroke-width="1.7"/>
    <path d="M 25.0 -45.46 L 25.0 -45.46" fill="none" stroke="black" stroke-linecap="round" stroke-linejoin="round" stroke-width="1.7"/>
    <path d="M 22.46 -45.46 L 22.46 -45.46" fill="none" stroke="black" stroke-linecap="round" stroke-linejoin="round" stroke-width="1.7"/>
    <path d="M 25.0 -42.92 L 25.0 -42.92" fill="none" stroke="black" stroke-linecap="round" stroke-linejoin="round" stroke-width="1.7"/>
    <path d="M 22.46 -42.92 L 22.46 -42.92" fill="none" stroke="black" stroke-linecap="round" stroke-linejoin="round" stroke-width="1.7"/>
    <path d="M 25.0 -40.38 L 25.0 -40.38" fill="none" stroke="black" stroke-linecap="round" stroke-linejoin="round" stroke-width="1.7"/>
    <path d="M 22.46 -40.38 L 22.46 -40.38" fill="none" stroke="black" stroke-linecap="round" stroke-linejoin="round" stroke-width="1.7"/>
    <path d="M 25.0 -37.84 L 25.0 -37.84" fill="none" stroke="black" stroke-linecap="round" stroke-linejoin="round" stroke-width="1.7"/>
    <path d="M 22.46 -37.84 L 22.46 -37.84" fill="none" stroke="black" stroke-linecap="round" stroke-linejoin="round" stroke-width="1.7"/>
    <path d="M 25.0 -35.3 L 25.0 -35.3" fill="none" stroke="black" stroke-linecap="round" stroke-linejoin="round" stroke-width="1.7"/>
    <path d="M 22.46 -35.3 L 22.46 -35.3" fill="none" stroke="black" stroke-linecap="round" stroke-linejoin="round" stroke-width="1.7"/>
    <path d="M 25.0 -32.76 L 25.0 -32.76" fill="none" stroke="black" stroke-linecap="round" stroke-linejoin="round" stroke-width="1.7"/>
    <path d="M 22.46 -32.76 L 22.46 -32.76" fill="none" stroke="black" stroke-linecap="round" stroke-linejoin="round" stroke-width="1.7"/>
    <path d="M 25.0 -30.22 L 25.0 -30.22" fill="none" stroke="black" stroke-linecap="round" stroke-linejoin="round" stroke-width="1.7"/>
    <path d="M 22.46 -30.22 L 22.46 -30.22" fill="none" stroke="black" stroke-linecap="round" stroke-linejoin="round" stroke-width="1.7"/>
    <rect x="26.6912" y="-31.1014" width="1.7" height="1.7" fill="black"/>
    <path d="M 27.5412 -32.7914 L 27.5412 -32.7914" fill="none" stroke="black" stroke-linecap="round" stroke-linejoin="round" stroke-width="1.7"/>
    <path d="M 27.5412 -35.3314 L 27.5412 -35.3314" fill="none" stroke="black" stroke-linecap="round" stroke-linejoin="round" stroke-width="1.7"/>
    <path d="M 27.5412 -37.8714 L 27.5412 -37.8714" fill="none" stroke="black" stroke-linecap="round" stroke-linejoin="round" stroke-width="1.7"/>
    <path d="M 27.5412 -40.4114 L 27.5412 -40.4114" fill="none" stroke="black" stroke-linecap="round" stroke-linejoin="round" stroke-width="1.7"/>
    <path d="M 27.5412 -42.9514 L 27.5412 -42.9514" fill="none" stroke="black" stroke-linecap="round" stroke-linejoin="round" stroke-width="1.7"/>
    <path d="M 27.5412 -45.4914 L 27.5412 -45.4914" fill="none" stroke="black" stroke-linecap="round" stroke-linejoin="round" stroke-width="1.7"/>
    <path d="M 27.5412 -48.0314 L 27.5412 -48.0314" fill="none" stroke="black" stroke-linecap="round" stroke-linejoin="round" stroke-width="1.7"/>
    <rect x="49.892" y="-25.796" width="0.8" height="1.3" fill="black"/>
    <path d="M 49.042 -25.396 L 49.042 -24.896" fill="none" stroke="black" stroke-linecap="round" stroke-linejoin="round" stroke-width="0.8"/>
    <path d="M 47.792 -25.396 L 47.792 -24.896" fill="none" stroke="black" stroke-linecap="round" stroke-linejoin="round" stroke-width="0.8"/>
    <path d="M 46.542 -25.396 L 46.542 -24.896" fill="none" stroke="black" stroke-linecap="round" stroke-linejoin="round" stroke-width="0.8"/>
    <rect x="31.223" y="-25.796" width="0.8" height="1.3" fill="black"/>
    <path d="M 30.373 -25.396 L 30.373 -24.896" fill="none" stroke="black" stroke-linecap="round" stroke-linejoin="round" stroke-width="0.8"/>
    <circle cx="24.0" cy="-66.0" r="3.2" fill="black"/>
    <circle cx="24.0" cy="-63.6" r="0.4" fill="black"/>
    <circle cx="24.0" cy="-68.4" r="0.4" fill="black"/>
    <circle cx="22.3029" cy="-67.6971" r="0.4" fill="black"/>
    <circle cx="21.6" cy="-66.0" r="0.4" fill="black"/>
    <circle cx="26.4" cy="-66.0" r="0.4" fill="black"/>
    <circle cx="22.3029" cy="-64.3029" r="0.4" fill="black"/>
    <circle cx="25.6971" cy="-64.3029" r="0.4" fill="black"/>
    <circle cx="25.6971" cy="-67.6971" r="0.4" fill="black"/>
    <circle cx="66.0" cy="-68.4" r="0.4" fill="black"/>
    <circle cx="68.4" cy="-66.0" r="0.4" fill="black"/>
    <circle cx="64.3029" cy="-67.6971" r="0.4" fill="black"/>
    <circle cx="67.6971" cy="-67.6971" r="0.4" fill="black"/>
    <circle cx="63.6" cy="-66.0" r="0.4" fill="black"/>
    <circle cx="67.6971" cy="-64.3029" r="0.4" fill="black"/>
    <circle cx="66.0" cy="-66.0" r="3.2" fill="black"/>
    <circle cx="66.0" cy="-63.6" r="0.4" fill="black"/>
    <circle cx="64.3029" cy="-64.3029" r="0.4" fill="black"/>
    <circle cx="64.3029" cy="-25.6971" r="0.4" fill="black"/>
    <circle cx="64.3029" cy="-22.3029" r="0.4" fill="black"/>
    <circle cx="63.6" cy="-24.0" r="0.4" fill="black"/>
    <circle cx="66.0" cy="-24.0" r="3.2" fill="black"/>
    <circle cx="67.6971" cy="-25.6971" r="0.4" fill="black"/>
    <circle cx="66.0" cy="-26.4" r="0.4" fill="black"/>
    <circle cx="68.4" cy="-24.0" r="0.4" fill="black"/>
    <circle cx="66.0" cy="-21.6" r="0.4" fill="black"/>
    <circle cx="67.6971" cy="-22.3029" r="0.4" fill="black"/>
    <circle cx="25.6971" cy="-22.3029" r="0.4" fill="black"/>
    <circle cx="25.6971" cy="-25.6971" r="0.4" fill="black"/>
    <circle cx="24.0" cy="-21.6" r="0.4" fill="black"/>
    <circle cx="26.4" cy="-24.0" r="0.4" fill="black"/>
    <circle cx="22.3029" cy="-25.6971" r="0.4" fill="black"/>
    <circle cx="22.3029" cy="-22.3029" r="0.4" fill="black"/>
    <circle cx="21.6" cy="-24.0" r="0.4" fill="black"/>
    <circle cx="24.0" cy="-24.0" r="3.2" fill="black"/>
    <circle cx="24.0" cy="-26.4" r="0.4" fill="black"/>
    <rect x="59.036" y="-25.796" width="0.8" height="1.3" fill="black"/>
    <path d="M 58.186 -25.396 L 58.186 -24.896" fill="none" stroke="black" stroke-linecap="round" stroke-linejoin="round" stroke-width="0.8"/>
    <path d="M 56.936 -25.396 L 56.936 -24.896" fill="none" stroke="black" stroke-linecap="round" stroke-linejoin="round" stroke-width="0.8"/>
    <path d="M 55.686 -25.396 L 55.686 -24.896" fill="none" stroke="black" stroke-linecap="round" stroke-linejoin="round" stroke-width="0.8"/>
    <rect x="24.2635" y="-56.3815" width="2.4" height="2.4" fill="black"/>
    <circle cx="25.4635" cy="-58.6815" r="1.2" fill="black"/>
    <circle cx="65.367" cy="-31.663" r="0.4" fill="black"/>
    <circle cx="65.367" cy="-36.663" r="0.4" fill="black"/>
    <circle cx="68.117" cy="-30.288" r="0.9" fill="black"/>
    <circle cx="64.317" cy="-30.438" r="1.0" fill="black"/>
    <circle cx="68.117" cy="-38.038" r="0.9" fill="black"/>
    <circle cx="64.317" cy="-37.888" r="1.0" fill="black"/>
  </g>
</svg>